<svg width="180" height="180" viewBox="0 0 128 128" fill="none" xmlns="http://www.w3.org/2000/svg">
  <defs>
    <linearGradient id="easyLifeAppleGrad" x1="16" y1="16" x2="112" y2="112" gradientUnits="userSpaceOnUse">
      <stop stop-color="#E11D48"/>
      <stop offset="0.55" stop-color="#EC4899"/>
      <stop offset="1" stop-color="#F97316"/>
    </linearGradient>
  </defs>
  <rect x="10" y="10" width="108" height="108" rx="30" fill="url(#easyLifeAppleGrad)"/>
  <path d="M64 39C61.2 34.2 55.7 31 49.5 31C40.4 31 33 38.2 33 47.2C33 63 54.2 73.9 64 84.7C73.8 73.9 95 63 95 47.2C95 38.2 87.6 31 78.5 31C72.3 31 66.8 34.2 64 39Z" fill="white"/>
  <path d="M51.5 49.5H60.5V44.5C60.5 42.8 61.9 41.5 63.5 41.5H64.5C66.2 41.5 67.5 42.9 67.5 44.5V49.5H76.5C78.2 49.5 79.5 50.9 79.5 52.5V53.5C79.5 55.2 78.1 56.5 76.5 56.5H67.5V65.5C67.5 67.2 66.1 68.5 64.5 68.5H63.5C61.8 68.5 60.5 67.1 60.5 65.5V56.5H51.5C49.8 56.5 48.5 55.1 48.5 53.5V52.5C48.5 50.8 49.9 49.5 51.5 49.5Z" fill="#E11D48"/>
</svg>
